<?xml version="1.0" standalone="no"?>
<!DOCTYPE svg PUBLIC "-//W3C//DTD SVG 20010904//EN"
 "http://www.w3.org/TR/2001/REC-SVG-20010904/DTD/svg10.dtd">
<svg version="1.0" xmlns="http://www.w3.org/2000/svg"
 width="984.000000pt" height="984.000000pt" viewBox="0 0 984.000000 984.000000"
 preserveAspectRatio="xMidYMid meet">
<metadata>
Created by potrace 1.14, written by Peter Selinger 2001-2017
</metadata>
<g transform="translate(0.000000,984.000000) scale(0.100000,-0.100000)"
fill="#000000" stroke="none">
<path d="M7855 9781 c-35 -16 -63 -41 -165 -151 -58 -62 -229 -247 -255 -275
-25 -28 -191 -207 -245 -265 -22 -23 -158 -171 -230 -250 -14 -15 -70 -76
-125 -135 -55 -59 -107 -116 -115 -125 -15 -17 -195 -212 -260 -281 -141 -150
-206 -226 -293 -344 -37 -49 -71 -95 -77 -102 -5 -7 -15 -24 -22 -38 -6 -14
-14 -25 -18 -25 -4 0 -10 -8 -13 -17 -3 -10 -20 -40 -36 -68 -53 -87 -135
-265 -123 -265 4 0 2 -4 -4 -8 -15 -10 -57 -167 -70 -262 -8 -62 -9 -217 -1
-240 3 -8 10 -42 17 -75 7 -33 16 -68 22 -78 12 -22 7 -28 -122 -167 -122
-132 -140 -151 -240 -260 -41 -45 -93 -101 -115 -124 -22 -23 -59 -63 -82 -90
l-42 -47 42 -42 c23 -23 79 -83 125 -134 l83 -92 53 57 c30 31 66 71 80 87 15
17 71 77 125 135 54 58 125 134 157 169 32 35 73 79 89 96 171 185 211 229
219 244 5 9 13 19 18 22 17 11 21 117 7 152 -7 17 -16 34 -19 37 -20 16 -52
157 -53 227 0 82 18 189 35 211 6 6 8 12 5 12 -6 0 35 106 64 165 42 83 129
225 156 253 7 7 13 17 13 20 0 4 11 20 25 35 14 15 22 27 18 27 -4 0 -3 4 3 8
6 4 35 36 64 72 30 36 65 77 79 91 14 14 69 72 121 129 52 57 112 121 133 142
20 20 37 42 37 48 0 6 5 8 10 5 6 -3 10 -2 10 2 0 9 20 32 180 203 54 58 108
116 120 130 22 26 188 205 250 270 19 20 71 76 115 125 44 48 91 99 105 114
14 15 72 78 130 141 58 62 132 142 165 178 77 83 87 98 101 151 36 142 -115
264 -251 202z"/>
<path d="M1597 9694 c-1 -1 -31 -4 -67 -7 -68 -6 -118 -13 -160 -22 -14 -4
-36 -8 -50 -11 -97 -19 -238 -68 -350 -121 -30 -15 -57 -27 -60 -28 -30 -5
-214 -130 -300 -204 -82 -70 -230 -222 -230 -237 0 -3 -9 -15 -52 -66 -10 -11
-20 -29 -23 -39 -4 -11 -11 -19 -16 -19 -6 0 -8 -4 -5 -9 4 -5 2 -11 -2 -13
-8 -3 -43 -63 -88 -148 -38 -74 -101 -236 -120 -310 -32 -126 -50 -222 -61
-315 -15 -122 -7 -515 11 -565 2 -8 8 -35 11 -60 12 -82 14 -95 30 -155 22
-85 26 -98 30 -115 2 -8 4 -16 5 -17 2 -2 4 -7 5 -13 1 -5 4 -12 5 -15 1 -3 3
-8 5 -12 1 -5 4 -15 8 -23 3 -8 15 -42 27 -75 33 -93 49 -129 132 -295 73
-147 239 -421 259 -428 5 -2 9 -8 9 -13 0 -9 120 -170 146 -197 8 -7 14 -16
14 -20 0 -4 18 -27 40 -52 22 -25 43 -49 48 -55 104 -129 522 -551 522 -528 0
3 7 -3 16 -11 9 -9 32 -29 52 -44 21 -15 39 -29 42 -32 7 -8 137 -102 190
-137 89 -60 282 -159 395 -202 41 -16 75 -27 75 -25 0 3 12 -2 28 -9 15 -8 45
-18 67 -22 22 -4 44 -10 50 -13 5 -3 16 -7 25 -8 24 -3 93 -14 125 -21 47 -9
344 -8 410 1 33 5 70 9 83 10 12 1 22 3 22 6 0 3 8 7 18 8 17 2 24 3 77 16 56
14 190 59 217 72 28 15 34 10 105 -72 10 -12 44 -50 75 -85 31 -35 65 -73 75
-85 25 -29 144 -163 168 -189 18 -20 86 -98 142 -161 10 -11 41 -47 70 -80 28
-32 60 -68 70 -80 10 -12 47 -54 83 -94 36 -40 73 -82 83 -94 10 -12 37 -43
60 -69 23 -27 51 -58 62 -71 11 -12 49 -55 85 -96 36 -40 72 -81 80 -90 8 -9
44 -49 80 -90 35 -41 71 -82 80 -91 8 -9 38 -42 65 -74 28 -32 60 -70 73 -84
13 -14 42 -48 65 -75 23 -26 56 -63 72 -81 17 -18 57 -63 90 -100 33 -38 69
-78 80 -91 11 -12 41 -46 66 -75 26 -30 57 -66 70 -80 21 -22 98 -109 156
-175 18 -21 138 -156 178 -200 11 -12 45 -50 75 -84 30 -35 66 -75 80 -90 14
-15 50 -55 80 -90 30 -35 66 -75 80 -90 14 -15 54 -60 90 -100 36 -40 79 -88
95 -105 17 -18 57 -63 90 -100 33 -38 65 -73 70 -79 6 -6 37 -40 70 -76 49
-55 141 -156 255 -280 14 -15 63 -69 110 -120 98 -107 109 -119 239 -259 53
-57 111 -120 130 -140 261 -280 775 -802 825 -836 38 -26 82 -50 131 -71 46
-20 40 -18 85 -27 19 -4 46 -10 60 -13 55 -13 229 -12 299 1 96 19 261 79 261
96 0 4 7 9 15 11 23 5 119 89 155 135 117 154 146 362 81 584 -26 86 -55 164
-67 181 -6 7 -19 33 -29 58 -11 25 -22 47 -25 50 -3 3 -19 28 -35 55 -44 77
-169 255 -274 390 -17 22 -34 45 -38 50 -7 9 -217 271 -263 329 -8 10 -20 23
-25 30 -6 6 -30 36 -55 66 -41 50 -80 96 -105 124 -13 15 -107 128 -120 144
-5 7 -19 23 -31 35 -11 12 -61 69 -110 127 -48 58 -91 107 -94 110 -3 3 -32
37 -65 75 -33 39 -62 72 -65 75 -3 3 -34 39 -70 80 -36 41 -67 77 -70 80 -3 3
-36 41 -75 85 -38 44 -76 87 -85 96 -8 9 -40 44 -70 79 -30 35 -59 68 -65 74
-5 6 -44 49 -85 96 -41 46 -84 94 -95 106 -11 13 -49 55 -85 95 -36 40 -75 83
-87 97 -12 13 -46 51 -75 84 -29 33 -66 75 -83 92 -49 53 -126 138 -190 210
-33 37 -69 78 -80 90 -55 60 -196 215 -240 264 -27 31 -63 70 -80 87 -16 18
-55 61 -86 96 -32 35 -78 87 -103 114 -52 56 -75 81 -193 210 -45 50 -91 101
-102 114 -12 13 -57 63 -100 110 -44 47 -89 97 -101 111 -12 13 -57 63 -100
110 -43 47 -88 96 -100 110 -89 103 -176 192 -203 208 -50 29 -132 24 -186
-11 -91 -60 -107 -192 -35 -273 113 -127 153 -171 174 -194 34 -37 171 -189
192 -212 15 -18 149 -164 208 -228 14 -15 54 -60 90 -100 36 -40 76 -85 90
-100 21 -23 153 -169 185 -204 6 -6 55 -60 109 -121 55 -60 110 -121 122 -135
13 -14 40 -44 61 -66 21 -23 70 -77 108 -120 39 -43 79 -88 90 -100 11 -12 45
-50 75 -84 30 -34 72 -81 94 -104 21 -22 59 -65 85 -95 25 -30 57 -66 71 -80
27 -29 31 -33 219 -246 153 -172 253 -285 266 -299 6 -6 39 -45 75 -86 36 -41
67 -77 70 -80 3 -3 34 -39 70 -80 36 -41 67 -77 70 -80 3 -3 34 -39 70 -80 36
-41 70 -80 76 -86 5 -6 26 -30 45 -54 18 -23 50 -59 69 -80 19 -21 49 -55 67
-77 18 -21 43 -51 57 -68 14 -16 41 -47 58 -69 18 -21 44 -51 58 -66 14 -15
32 -36 40 -46 8 -11 73 -89 144 -174 71 -85 141 -170 155 -188 14 -18 34 -43
45 -55 10 -12 48 -60 84 -107 37 -47 69 -87 72 -90 3 -3 17 -21 30 -40 13 -19
27 -37 30 -40 10 -8 133 -180 160 -225 76 -122 116 -217 126 -295 4 -34 6 -84
4 -90 -1 -3 -3 -13 -5 -22 -15 -80 -61 -138 -135 -171 -83 -38 -298 -26 -387
21 -11 6 -23 8 -27 4 -9 -8 -533 523 -782 794 -48 52 -216 234 -254 274 -72
78 -199 217 -238 260 -22 25 -60 66 -84 91 -23 26 -72 79 -108 119 -36 40 -81
90 -100 111 -19 20 -60 65 -90 100 -30 34 -71 79 -90 100 -19 20 -60 65 -90
99 -30 35 -66 75 -80 90 -14 15 -54 60 -90 101 -66 75 -116 130 -160 179 -43
47 -147 164 -171 193 -13 15 -40 45 -59 66 -19 20 -64 71 -99 112 -36 41 -74
84 -85 96 -12 11 -43 47 -71 79 -27 32 -61 70 -75 85 -14 14 -45 50 -70 79
-25 29 -58 67 -75 84 -16 17 -48 53 -70 80 -22 27 -56 66 -75 86 -41 44 -73
79 -155 175 -33 39 -69 79 -80 91 -11 12 -45 49 -75 84 -30 35 -59 68 -65 74
-30 33 -96 108 -140 160 -27 32 -61 71 -75 85 -14 14 -48 53 -75 85 -28 33
-61 72 -75 86 -14 14 -50 55 -80 89 -30 35 -60 69 -65 75 -6 6 -44 49 -85 96
-41 47 -79 90 -84 96 -6 6 -38 42 -71 80 -33 38 -80 91 -105 119 -25 27 -49
54 -55 61 -5 6 -37 42 -70 79 -33 38 -70 79 -82 91 -13 12 -23 24 -23 28 0 9
-68 69 -97 84 -37 20 -117 17 -163 -7 -23 -12 -47 -21 -54 -21 -8 0 -16 -4
-18 -9 -4 -10 -228 -88 -273 -95 -16 -2 -30 -5 -30 -6 0 -2 -12 -4 -105 -15
-66 -8 -207 -8 -270 0 -19 3 -52 7 -73 10 -21 3 -46 9 -55 13 -9 5 -24 8 -32
7 -8 -1 -19 2 -25 5 -5 4 -37 15 -70 25 -33 10 -69 23 -80 28 -11 6 -26 12
-34 13 -8 2 -18 9 -22 16 -5 7 -9 9 -9 5 0 -5 -35 10 -77 33 -128 69 -301 187
-389 265 -7 5 -31 26 -55 45 -57 45 -307 295 -386 385 -65 74 -194 233 -228
281 -11 15 -29 39 -41 53 -33 41 -164 241 -164 252 0 5 -3 9 -8 9 -4 0 -13 15
-21 33 -8 17 -17 34 -21 37 -6 4 -117 231 -140 285 -41 99 -99 284 -115 370
-31 163 -38 238 -38 385 -1 201 23 354 84 533 114 339 349 610 659 760 194 94
387 135 620 131 153 -2 183 -4 290 -25 30 -6 64 -12 75 -14 108 -18 284 -84
440 -164 124 -63 376 -222 383 -242 2 -5 9 -9 15 -9 7 0 28 -14 47 -30 19 -16
40 -33 45 -37 109 -82 387 -346 501 -473 40 -46 164 -199 189 -234 11 -16 29
-40 40 -55 28 -35 76 -105 100 -145 11 -18 44 -71 73 -118 28 -47 52 -88 52
-91 0 -3 16 -33 34 -66 19 -34 33 -61 30 -61 -2 0 5 -18 16 -41 60 -118 133
-344 159 -494 25 -143 28 -324 7 -440 -3 -16 -8 -46 -11 -65 -3 -19 -9 -42
-12 -50 -3 -8 -7 -19 -9 -25 -36 -146 -145 -331 -278 -471 -45 -47 -90 -104
-102 -126 -62 -119 38 -267 173 -255 26 3 60 10 74 17 23 11 135 121 201 197
52 61 147 209 191 298 52 104 111 270 102 285 -3 5 -2 10 3 10 5 0 9 6 10 13
0 6 3 23 6 37 24 105 30 180 29 340 -1 146 -5 212 -18 279 -4 20 -9 47 -11 61
-4 21 -13 64 -20 93 -1 4 -2 8 -4 10 -1 1 -3 9 -5 17 -34 169 -178 513 -290
695 -14 22 -30 51 -37 65 -7 14 -21 34 -30 44 -10 11 -18 24 -18 28 0 11 -42
72 -52 76 -5 2 -8 8 -8 13 0 6 -13 27 -28 47 -16 20 -57 75 -92 122 -36 47
-69 90 -75 96 -5 6 -28 33 -50 59 -100 121 -341 368 -450 460 -33 28 -66 57
-75 65 -9 8 -45 37 -81 65 -35 27 -69 54 -76 60 -13 12 -189 135 -214 150 -9
6 -59 35 -110 67 -121 72 -304 165 -345 173 -6 2 -27 10 -45 18 -49 22 -189
68 -249 82 -3 0 -23 5 -45 10 -22 5 -42 9 -45 10 -13 3 -118 19 -140 21 -14 1
-25 3 -25 4 0 1 -18 4 -40 5 -22 2 -40 4 -40 5 0 3 -285 7 -288 4z"/>
<path d="M8429 9246 c-26 -12 -62 -38 -80 -58 -19 -20 -72 -77 -119 -128 -47
-51 -101 -109 -120 -130 -19 -20 -75 -81 -125 -135 -49 -54 -101 -110 -115
-125 -37 -40 -210 -228 -245 -265 -72 -78 -212 -230 -235 -255 -61 -67 -198
-216 -230 -250 -147 -156 -159 -175 -156 -246 4 -77 45 -139 111 -164 46 -18
57 -19 110 -9 54 10 76 30 285 259 52 57 116 126 143 153 26 27 47 51 47 52 0
4 116 129 178 191 23 24 42 45 42 47 0 2 28 33 63 69 34 36 98 105 142 153 44
49 105 115 135 147 30 33 69 74 85 92 17 18 73 79 125 135 52 57 106 115 120
130 82 84 106 147 84 221 -32 108 -148 163 -245 116z"/>
<path d="M8994 8721 c-24 -11 -75 -57 -134 -121 -52 -57 -102 -111 -110 -120
-8 -9 -34 -37 -57 -62 -23 -25 -44 -43 -47 -40 -3 3 -6 0 -6 -6 0 -6 -12 -24
-27 -40 -16 -16 -71 -75 -123 -132 -52 -57 -108 -118 -125 -136 -16 -18 -66
-71 -110 -119 -44 -48 -96 -105 -115 -125 -62 -66 -234 -251 -250 -270 -15
-17 -149 -162 -242 -263 -102 -109 -100 -224 5 -307 33 -26 113 -36 161 -20
35 11 127 98 228 213 18 22 53 60 78 87 25 26 90 96 145 155 186 201 230 249
260 282 28 30 131 142 200 217 17 18 75 82 131 142 56 60 120 130 143 156 24
25 64 68 89 95 140 146 162 181 162 260 0 31 -28 92 -54 118 -46 47 -140 63
-202 36z"/>
<path d="M9585 8176 c-34 -15 -96 -74 -205 -195 -41 -45 -95 -104 -120 -131
-25 -26 -90 -96 -145 -156 -55 -59 -111 -120 -125 -135 -14 -15 -62 -67 -106
-116 -45 -48 -97 -104 -115 -124 -19 -20 -77 -82 -129 -139 -52 -57 -106 -115
-120 -130 -14 -15 -63 -69 -110 -119 -47 -51 -105 -114 -130 -141 -25 -26 -85
-92 -135 -146 -113 -125 -245 -252 -267 -260 -10 -3 -18 -9 -18 -13 0 -5 -26
-28 -57 -52 -32 -23 -59 -46 -61 -51 -2 -4 -10 -8 -18 -8 -8 0 -14 -4 -14 -10
0 -5 -7 -10 -15 -10 -8 0 -15 -4 -15 -10 0 -5 -4 -10 -9 -10 -6 0 -30 -13 -54
-30 -64 -43 -235 -123 -247 -115 -5 3 -10 1 -10 -5 0 -6 -4 -8 -10 -5 -5 3
-10 2 -10 -4 0 -5 -8 -8 -17 -6 -10 1 -23 -2 -29 -6 -28 -22 -224 -31 -301
-13 -29 6 -53 9 -53 6 0 -3 -5 -1 -12 6 -7 7 -19 12 -28 12 -39 0 -230 111
-285 165 -27 27 -61 45 -84 45 -11 0 -23 5 -26 10 -5 8 -11 8 -19 1 -7 -6 -15
-8 -18 -5 -8 7 -90 -27 -109 -46 -28 -26 -51 -82 -54 -129 -5 -77 35 -133 165
-226 30 -22 58 -44 62 -50 4 -5 8 -6 8 -2 0 5 13 -1 29 -12 45 -32 261 -128
261 -116 0 2 11 0 25 -5 75 -28 236 -40 372 -27 76 8 246 48 298 72 16 7 59
26 95 41 36 16 68 33 72 39 4 5 8 7 8 2 0 -4 18 4 40 18 22 14 44 25 50 25 5
0 10 5 10 10 0 6 5 10 11 10 12 0 196 128 223 156 9 8 16 12 16 7 0 -4 4 -3 8
3 4 6 40 39 81 74 87 75 171 159 296 295 50 54 104 112 120 130 17 17 73 78
125 135 52 56 116 126 143 154 26 27 64 68 84 91 31 35 114 124 258 280 22 23
81 87 130 141 191 207 196 212 361 390 142 153 159 175 172 213 50 146 -102
289 -243 227z"/>
<path d="M6297 5404 c-5 -5 -29 -11 -50 -13 -9 -1 -187 -183 -187 -191 0 -5
32 -41 153 -174 40 -43 75 -83 80 -90 4 -7 33 16 78 64 127 134 134 146 133
215 0 33 -3 70 -6 82 -9 30 -61 80 -101 96 -32 14 -91 20 -100 11z"/>
<path d="M3280 3969 c-47 -50 -96 -104 -110 -119 -14 -15 -70 -76 -126 -136
-56 -60 -123 -133 -150 -163 -27 -30 -69 -75 -92 -100 -24 -25 -81 -86 -125
-135 -45 -49 -100 -108 -122 -131 -22 -24 -78 -84 -125 -136 -47 -51 -107
-116 -135 -145 -27 -29 -79 -85 -115 -125 -36 -39 -83 -90 -105 -114 -35 -37
-128 -138 -247 -268 -21 -23 -38 -45 -38 -49 0 -4 -7 -8 -15 -8 -8 0 -15 -4
-15 -8 0 -5 -19 -29 -42 -54 -24 -25 -83 -90 -133 -144 -49 -53 -103 -112
-120 -129 -16 -18 -70 -76 -120 -131 -49 -54 -106 -114 -125 -134 -19 -20 -80
-85 -135 -145 -55 -59 -114 -122 -130 -139 -44 -45 -95 -112 -95 -125 0 -6 -3
-11 -8 -11 -17 0 -76 -134 -88 -200 -12 -68 -11 -170 2 -217 7 -22 10 -44 7
-47 -4 -3 -1 -6 6 -6 7 0 10 -4 7 -9 -3 -4 4 -25 14 -47 11 -21 20 -44 20 -50
0 -7 3 -14 8 -16 4 -1 24 -28 45 -59 32 -48 89 -105 255 -258 20 -18 60 -55
88 -82 168 -160 451 -181 704 -54 72 36 208 131 243 169 12 13 60 65 107 116
47 51 98 106 113 123 127 137 218 235 247 267 19 20 73 79 120 130 47 51 101
109 120 130 31 33 165 178 244 264 15 17 70 76 121 131 52 55 106 114 121 130
42 47 215 233 259 280 22 24 60 65 84 91 64 70 237 258 302 329 32 33 70 74
85 91 45 50 233 252 291 315 l32 34 -42 47 c-23 26 -78 88 -122 138 l-79 92
-51 -54 c-27 -30 -79 -86 -115 -125 -59 -64 -206 -222 -289 -312 -18 -20 -70
-76 -115 -125 -44 -49 -99 -108 -121 -132 -22 -23 -78 -84 -125 -135 -47 -51
-101 -110 -120 -130 -19 -20 -73 -78 -120 -130 -47 -51 -98 -107 -115 -125
-16 -17 -75 -80 -130 -140 -55 -59 -129 -139 -165 -178 -36 -39 -84 -91 -107
-116 -23 -25 -57 -61 -75 -81 -18 -19 -76 -82 -128 -139 -52 -56 -106 -115
-120 -130 -14 -15 -65 -71 -115 -124 -49 -54 -107 -117 -128 -140 -134 -145
-180 -186 -240 -214 -55 -26 -120 -45 -152 -44 -61 2 -139 14 -168 27 -20 8
-38 14 -39 13 -7 -6 -109 71 -152 116 -53 55 -102 148 -111 211 -3 22 -8 46
-10 53 -2 6 -1 12 4 12 4 0 7 15 6 34 -2 38 41 138 76 177 23 25 169 184 234
254 101 109 224 241 250 269 17 18 68 75 115 125 47 51 99 107 115 125 85 92
233 252 255 276 14 15 72 78 130 141 58 62 125 135 150 162 25 26 68 72 95
102 28 29 84 90 125 135 41 46 105 115 141 154 137 147 149 160 149 168 0 4 7
8 15 8 8 0 15 4 15 10 0 5 15 25 33 43 17 19 75 81 127 137 52 57 113 123 135
146 22 23 78 84 125 135 47 51 102 111 122 133 36 38 37 40 20 60 -9 12 -20
23 -23 26 -3 3 -41 46 -84 95 -44 50 -89 100 -100 113 l-21 22 -84 -91z"/>
</g>
</svg>
